<?xml version="1.0" encoding="UTF-8" standalone="no"?>
<!DOCTYPE svg PUBLIC "-//W3C//DTD SVG 1.1//EN"
 "http://www.w3.org/Graphics/SVG/1.1/DTD/svg11.dtd">
<!-- Generated by graphviz version 2.44.1 (20200629.0846)
 -->
<!-- Title: G Pages: 1 -->
<svg width="456pt" height="383pt"
 viewBox="0.00 0.00 456.00 383.00" xmlns="http://www.w3.org/2000/svg" xmlns:xlink="http://www.w3.org/1999/xlink">
<g id="graph0" class="graph" transform="scale(1 1) rotate(0) translate(4 379)">
<title>G</title>
<polygon fill="white" stroke="transparent" points="-4,4 -4,-379 452,-379 452,4 -4,4"/>
<g id="clust1" class="cluster">
<title>cluster2843651513</title>
<path fill="none" stroke="#8b7d6b" stroke-width="2" d="M20,-8C20,-8 428,-8 428,-8 434,-8 440,-14 440,-20 440,-20 440,-355 440,-355 440,-361 434,-367 428,-367 428,-367 20,-367 20,-367 14,-367 8,-361 8,-355 8,-355 8,-20 8,-20 8,-14 14,-8 20,-8"/>
<text text-anchor="start" x="213.5" y="-352.8" font-family="Helvetica,sans-Serif" font-weight="bold" font-size="14.00">src</text>
</g>
<g id="clust2" class="cluster">
<title>cluster6036122416</title>
<path fill="bisque" stroke="#8b7d6b" stroke-width="2" d="M28,-207C28,-207 202,-207 202,-207 208,-207 214,-213 214,-219 214,-219 214,-324 214,-324 214,-330 208,-336 202,-336 202,-336 28,-336 28,-336 22,-336 16,-330 16,-324 16,-324 16,-219 16,-219 16,-213 22,-207 28,-207"/>
<text text-anchor="start" x="87.5" y="-321.8" font-family="Helvetica,sans-Serif" font-weight="bold" font-size="14.00">example</text>
</g>
<g id="clust3" class="cluster">
<title>cluster912766182</title>
<path fill="bisque" stroke="#8b7d6b" stroke-width="2" d="M63.5,-16C63.5,-16 166.5,-16 166.5,-16 172.5,-16 178.5,-22 178.5,-28 178.5,-28 178.5,-187 178.5,-187 178.5,-193 172.5,-199 166.5,-199 166.5,-199 63.5,-199 63.5,-199 57.5,-199 51.5,-193 51.5,-187 51.5,-187 51.5,-28 51.5,-28 51.5,-22 57.5,-16 63.5,-16"/>
<text text-anchor="start" x="102.5" y="-184.8" font-family="Helvetica,sans-Serif" font-weight="bold" font-size="14.00">test</text>
</g>
<!-- src/chan.ts -->
<g id="node1" class="node">
<title>src/chan.ts</title>
<path fill="#79cdcd" stroke="#79cdcd" d="M294,-251C294,-251 258,-251 258,-251 252,-251 246,-245 246,-239 246,-239 246,-227 246,-227 246,-221 252,-215 258,-215 258,-215 294,-215 294,-215 300,-215 306,-221 306,-227 306,-227 306,-239 306,-239 306,-245 300,-251 294,-251"/>
<text text-anchor="middle" x="276" y="-229.3" font-family="Helvetica,sans-Serif" font-size="14.00">chan.ts</text>
</g>
<!-- src/conveyor.ts -->
<g id="node2" class="node">
<title>src/conveyor.ts</title>
<path fill="#79cdcd" stroke="#79cdcd" d="M420,-91C420,-91 358,-91 358,-91 352,-91 346,-85 346,-79 346,-79 346,-67 346,-67 346,-61 352,-55 358,-55 358,-55 420,-55 420,-55 426,-55 432,-61 432,-67 432,-67 432,-79 432,-79 432,-85 426,-91 420,-91"/>
<text text-anchor="middle" x="389" y="-69.3" font-family="Helvetica,sans-Serif" font-size="14.00">conveyor.ts</text>
</g>
<!-- src/mutex.ts -->
<g id="node3" class="node">
<title>src/mutex.ts</title>
<path fill="#79cdcd" stroke="#79cdcd" d="M298,-106C298,-106 254,-106 254,-106 248,-106 242,-100 242,-94 242,-94 242,-82 242,-82 242,-76 248,-70 254,-70 254,-70 298,-70 298,-70 304,-70 310,-76 310,-82 310,-82 310,-94 310,-94 310,-100 304,-106 298,-106"/>
<text text-anchor="middle" x="276" y="-84.3" font-family="Helvetica,sans-Serif" font-size="14.00">mutex.ts</text>
</g>
<!-- src/mutex.ts&#45;&gt;src/conveyor.ts -->
<g id="edge5" class="edge">
<title>src/mutex.ts&#45;&gt;src/conveyor.ts</title>
<path fill="none" stroke="#528b8b" stroke-width="2" d="M310,-83.54C318.09,-82.45 326.94,-81.25 335.68,-80.07"/>
<polygon fill="#528b8b" stroke="#528b8b" stroke-width="2" points="336.41,-83.5 345.85,-78.7 335.47,-76.57 336.41,-83.5"/>
</g>
<!-- src/util.ts -->
<g id="node4" class="node">
<title>src/util.ts</title>
<path fill="#79cdcd" stroke="#79cdcd" d="M291,-168C291,-168 261,-168 261,-168 255,-168 249,-162 249,-156 249,-156 249,-144 249,-144 249,-138 255,-132 261,-132 261,-132 291,-132 291,-132 297,-132 303,-138 303,-144 303,-144 303,-156 303,-156 303,-162 297,-168 291,-168"/>
<text text-anchor="middle" x="276" y="-146.3" font-family="Helvetica,sans-Serif" font-size="14.00">util.ts</text>
</g>
<!-- src/example/chan&#45;producer&#45;consumer.ts -->
<g id="node5" class="node">
<title>src/example/chan&#45;producer&#45;consumer.ts</title>
<path fill="#79cdcd" stroke="#79cdcd" d="M194,-305C194,-305 36,-305 36,-305 30,-305 24,-299 24,-293 24,-293 24,-281 24,-281 24,-275 30,-269 36,-269 36,-269 194,-269 194,-269 200,-269 206,-275 206,-281 206,-281 206,-293 206,-293 206,-299 200,-305 194,-305"/>
<text text-anchor="middle" x="115" y="-283.3" font-family="Helvetica,sans-Serif" font-size="14.00">chan&#45;producer&#45;consumer.ts</text>
</g>
<!-- src/example/chan&#45;producer&#45;consumer.ts&#45;&gt;src/chan.ts -->
<g id="edge1" class="edge">
<title>src/example/chan&#45;producer&#45;consumer.ts&#45;&gt;src/chan.ts</title>
<path fill="none" stroke="#528b8b" stroke-width="2" d="M186.52,-268.92C195.83,-266.14 205.19,-263.14 214,-260 221.44,-257.35 229.24,-254.19 236.69,-250.99"/>
<polygon fill="#528b8b" stroke="#528b8b" stroke-width="2" points="238.14,-254.17 245.88,-246.94 235.32,-247.77 238.14,-254.17"/>
</g>
<!-- src/example/chan&#45;producer&#45;consumer.ts&#45;&gt;src/util.ts -->
<g id="edge2" class="edge">
<title>src/example/chan&#45;producer&#45;consumer.ts&#45;&gt;src/util.ts</title>
<path fill="none" stroke="#528b8b" stroke-width="2" d="M200.66,-268.82C205.39,-266.25 209.89,-263.33 214,-260 235.01,-242.99 228.91,-229.65 242,-206 247.33,-196.37 253.38,-185.96 258.84,-176.75"/>
<polygon fill="#528b8b" stroke="#528b8b" stroke-width="2" points="261.93,-178.4 264.05,-168.02 255.92,-174.81 261.93,-178.4"/>
</g>
<!-- src/example/chan&#45;zip.ts -->
<g id="node6" class="node">
<title>src/example/chan&#45;zip.ts</title>
<path fill="#79cdcd" stroke="#79cdcd" d="M144,-251C144,-251 86,-251 86,-251 80,-251 74,-245 74,-239 74,-239 74,-227 74,-227 74,-221 80,-215 86,-215 86,-215 144,-215 144,-215 150,-215 156,-221 156,-227 156,-227 156,-239 156,-239 156,-245 150,-251 144,-251"/>
<text text-anchor="middle" x="115" y="-229.3" font-family="Helvetica,sans-Serif" font-size="14.00">chan&#45;zip.ts</text>
</g>
<!-- src/example/chan&#45;zip.ts&#45;&gt;src/chan.ts -->
<g id="edge3" class="edge">
<title>src/example/chan&#45;zip.ts&#45;&gt;src/chan.ts</title>
<path fill="none" stroke="#528b8b" stroke-width="2" d="M156.12,-233C180.48,-233 211.45,-233 235.66,-233"/>
<polygon fill="#528b8b" stroke="#528b8b" stroke-width="2" points="235.93,-236.5 245.93,-233 235.93,-229.5 235.93,-236.5"/>
</g>
<!-- src/example/chan&#45;zip.ts&#45;&gt;src/util.ts -->
<g id="edge4" class="edge">
<title>src/example/chan&#45;zip.ts&#45;&gt;src/util.ts</title>
<path fill="none" stroke="#528b8b" stroke-width="2" d="M156.15,-224.75C174.51,-219.98 196.1,-212.92 214,-203 227.33,-195.61 240.33,-184.95 250.88,-175.12"/>
<polygon fill="#528b8b" stroke="#528b8b" stroke-width="2" points="253.32,-177.63 258.1,-168.17 248.47,-172.59 253.32,-177.63"/>
</g>
<!-- src/test/chan.test.ts -->
<g id="node7" class="node">
<title>src/test/chan.test.ts</title>
<path fill="#79cdcd" stroke="#79cdcd" d="M146,-168C146,-168 84,-168 84,-168 78,-168 72,-162 72,-156 72,-156 72,-144 72,-144 72,-138 78,-132 84,-132 84,-132 146,-132 146,-132 152,-132 158,-138 158,-144 158,-144 158,-156 158,-156 158,-162 152,-168 146,-168"/>
<text text-anchor="middle" x="115" y="-146.3" font-family="Helvetica,sans-Serif" font-size="14.00">chan.test.ts</text>
</g>
<!-- src/test/chan.test.ts&#45;&gt;src/chan.ts -->
<g id="edge6" class="edge">
<title>src/test/chan.test.ts&#45;&gt;src/chan.ts</title>
<path fill="none" stroke="#528b8b" stroke-width="2" d="M150.5,-168.01C175.99,-181.32 210.69,-199.43 236.98,-213.15"/>
<polygon fill="#528b8b" stroke="#528b8b" stroke-width="2" points="235.41,-216.28 245.89,-217.81 238.65,-210.08 235.41,-216.28"/>
</g>
<!-- src/test/chan.test.ts&#45;&gt;src/util.ts -->
<g id="edge7" class="edge">
<title>src/test/chan.test.ts&#45;&gt;src/util.ts</title>
<path fill="none" stroke="#528b8b" stroke-width="2" d="M158.19,-150C183.2,-150 214.57,-150 238.5,-150"/>
<polygon fill="#528b8b" stroke="#528b8b" stroke-width="2" points="238.59,-153.5 248.59,-150 238.59,-146.5 238.59,-153.5"/>
</g>
<!-- src/test/conveyor.test.ts -->
<g id="node8" class="node">
<title>src/test/conveyor.test.ts</title>
<path fill="#79cdcd" stroke="#79cdcd" d="M158.5,-60C158.5,-60 71.5,-60 71.5,-60 65.5,-60 59.5,-54 59.5,-48 59.5,-48 59.5,-36 59.5,-36 59.5,-30 65.5,-24 71.5,-24 71.5,-24 158.5,-24 158.5,-24 164.5,-24 170.5,-30 170.5,-36 170.5,-36 170.5,-48 170.5,-48 170.5,-54 164.5,-60 158.5,-60"/>
<text text-anchor="middle" x="115" y="-38.3" font-family="Helvetica,sans-Serif" font-size="14.00">conveyor.test.ts</text>
</g>
<!-- src/test/conveyor.test.ts&#45;&gt;src/conveyor.ts -->
<g id="edge8" class="edge">
<title>src/test/conveyor.test.ts&#45;&gt;src/conveyor.ts</title>
<path fill="none" stroke="#528b8b" stroke-width="2" d="M170.86,-46.56C209.76,-50 263.16,-55.11 310,-61 318.4,-62.06 327.3,-63.3 335.95,-64.59"/>
<polygon fill="#528b8b" stroke="#528b8b" stroke-width="2" points="335.55,-68.06 345.96,-66.1 336.6,-61.14 335.55,-68.06"/>
</g>
<!-- src/test/conveyor.test.ts&#45;&gt;src/util.ts -->
<g id="edge9" class="edge">
<title>src/test/conveyor.test.ts&#45;&gt;src/util.ts</title>
<path fill="none" stroke="#528b8b" stroke-width="2" d="M170.7,-49.4C185.8,-53.39 201.46,-59.54 214,-69 233.11,-83.42 227.49,-95.97 242,-115 244.38,-118.12 247,-121.28 249.69,-124.35"/>
<polygon fill="#528b8b" stroke="#528b8b" stroke-width="2" points="247.11,-126.72 256.43,-131.75 252.28,-122 247.11,-126.72"/>
</g>
<!-- src/test/mutex.test.ts -->
<g id="node9" class="node">
<title>src/test/mutex.test.ts</title>
<path fill="#79cdcd" stroke="#79cdcd" d="M150,-114C150,-114 80,-114 80,-114 74,-114 68,-108 68,-102 68,-102 68,-90 68,-90 68,-84 74,-78 80,-78 80,-78 150,-78 150,-78 156,-78 162,-84 162,-90 162,-90 162,-102 162,-102 162,-108 156,-114 150,-114"/>
<text text-anchor="middle" x="115" y="-92.3" font-family="Helvetica,sans-Serif" font-size="14.00">mutex.test.ts</text>
</g>
<!-- src/test/mutex.test.ts&#45;&gt;src/mutex.ts -->
<g id="edge10" class="edge">
<title>src/test/mutex.test.ts&#45;&gt;src/mutex.ts</title>
<path fill="none" stroke="#528b8b" stroke-width="2" d="M162.42,-93.66C184.32,-92.56 210.29,-91.26 231.77,-90.18"/>
<polygon fill="#528b8b" stroke="#528b8b" stroke-width="2" points="232.1,-93.66 241.91,-89.66 231.75,-86.67 232.1,-93.66"/>
</g>
<!-- src/test/mutex.test.ts&#45;&gt;src/util.ts -->
<g id="edge11" class="edge">
<title>src/test/mutex.test.ts&#45;&gt;src/util.ts</title>
<path fill="none" stroke="#528b8b" stroke-width="2" d="M162.31,-107.25C178.79,-111.65 197.38,-117.07 214,-123 222.39,-125.99 231.24,-129.63 239.52,-133.24"/>
<polygon fill="#528b8b" stroke="#528b8b" stroke-width="2" points="238.36,-136.56 248.92,-137.44 241.22,-130.17 238.36,-136.56"/>
</g>
</g>
</svg>
