<?xml version="1.0" encoding="UTF-8" standalone="no"?>
<!DOCTYPE svg PUBLIC "-//W3C//DTD SVG 1.1//EN"
 "http://www.w3.org/Graphics/SVG/1.1/DTD/svg11.dtd">
<!-- Generated by graphviz version 2.44.1 (20200629.0846)
 -->
<!-- Title: G Pages: 1 -->
<svg width="334pt" height="153pt"
 viewBox="0.00 0.00 334.00 153.00" xmlns="http://www.w3.org/2000/svg" xmlns:xlink="http://www.w3.org/1999/xlink">
<g id="graph0" class="graph" transform="scale(1 1) rotate(0) translate(4 149)">
<title>G</title>
<polygon fill="white" stroke="transparent" points="-4,4 -4,-149 330,-149 330,4 -4,4"/>
<g id="clust1" class="cluster">
<title>cluster348294874</title>
<path fill="none" stroke="#8b7d6b" stroke-width="2" d="M20,-8C20,-8 306,-8 306,-8 312,-8 318,-14 318,-20 318,-20 318,-125 318,-125 318,-131 312,-137 306,-137 306,-137 20,-137 20,-137 14,-137 8,-131 8,-125 8,-125 8,-20 8,-20 8,-14 14,-8 20,-8"/>
<text text-anchor="start" x="152.5" y="-122.8" font-family="Helvetica,sans-Serif" font-weight="bold" font-size="14.00">src</text>
</g>
<!-- src/chan.ts -->
<g id="node1" class="node">
<title>src/chan.ts</title>
<path fill="#79cdcd" stroke="#79cdcd" d="M168,-106C168,-106 132,-106 132,-106 126,-106 120,-100 120,-94 120,-94 120,-82 120,-82 120,-76 126,-70 132,-70 132,-70 168,-70 168,-70 174,-70 180,-76 180,-82 180,-82 180,-94 180,-94 180,-100 174,-106 168,-106"/>
<text text-anchor="middle" x="150" y="-84.3" font-family="Helvetica,sans-Serif" font-size="14.00">chan.ts</text>
</g>
<!-- src/deferred.ts -->
<g id="node3" class="node">
<title>src/deferred.ts</title>
<path fill="#79cdcd" stroke="#79cdcd" d="M298,-79C298,-79 241,-79 241,-79 235,-79 229,-73 229,-67 229,-67 229,-55 229,-55 229,-49 235,-43 241,-43 241,-43 298,-43 298,-43 304,-43 310,-49 310,-55 310,-55 310,-67 310,-67 310,-73 304,-79 298,-79"/>
<text text-anchor="middle" x="269.5" y="-57.3" font-family="Helvetica,sans-Serif" font-size="14.00">deferred.ts</text>
</g>
<!-- src/chan.ts&#45;&gt;src/deferred.ts -->
<g id="edge1" class="edge">
<title>src/chan.ts&#45;&gt;src/deferred.ts</title>
<path fill="none" stroke="#528b8b" stroke-width="2" d="M180.04,-81.33C191.74,-78.64 205.57,-75.46 218.78,-72.43"/>
<polygon fill="#528b8b" stroke="#528b8b" stroke-width="2" points="219.75,-75.79 228.71,-70.14 218.18,-68.97 219.75,-75.79"/>
</g>
<!-- src/conveyor.ts -->
<g id="node2" class="node">
<title>src/conveyor.ts</title>
<path fill="#79cdcd" stroke="#79cdcd" d="M181,-52C181,-52 119,-52 119,-52 113,-52 107,-46 107,-40 107,-40 107,-28 107,-28 107,-22 113,-16 119,-16 119,-16 181,-16 181,-16 187,-16 193,-22 193,-28 193,-28 193,-40 193,-40 193,-46 187,-52 181,-52"/>
<text text-anchor="middle" x="150" y="-30.3" font-family="Helvetica,sans-Serif" font-size="14.00">conveyor.ts</text>
</g>
<!-- src/conveyor.ts&#45;&gt;src/deferred.ts -->
<g id="edge2" class="edge">
<title>src/conveyor.ts&#45;&gt;src/deferred.ts</title>
<path fill="none" stroke="#528b8b" stroke-width="2" d="M193.09,-43.67C201.42,-45.59 210.24,-47.61 218.79,-49.58"/>
<polygon fill="#528b8b" stroke="#528b8b" stroke-width="2" points="218.14,-53.02 228.67,-51.85 219.71,-46.2 218.14,-53.02"/>
</g>
<!-- src/lock.ts -->
<g id="node4" class="node">
<title>src/lock.ts</title>
<path fill="#79cdcd" stroke="#79cdcd" d="M59,-106C59,-106 28,-106 28,-106 22,-106 16,-100 16,-94 16,-94 16,-82 16,-82 16,-76 22,-70 28,-70 28,-70 59,-70 59,-70 65,-70 71,-76 71,-82 71,-82 71,-94 71,-94 71,-100 65,-106 59,-106"/>
<text text-anchor="middle" x="43.5" y="-84.3" font-family="Helvetica,sans-Serif" font-size="14.00">lock.ts</text>
</g>
<!-- src/lock.ts&#45;&gt;src/conveyor.ts -->
<g id="edge3" class="edge">
<title>src/lock.ts&#45;&gt;src/conveyor.ts</title>
<path fill="none" stroke="#528b8b" stroke-width="2" d="M71.14,-74.23C81.45,-68.91 93.52,-62.67 105.04,-56.72"/>
<polygon fill="#528b8b" stroke="#528b8b" stroke-width="2" points="106.84,-59.73 114.12,-52.03 103.63,-53.51 106.84,-59.73"/>
</g>
<!-- src/util.ts -->
<g id="node5" class="node">
<title>src/util.ts</title>
<path fill="#79cdcd" stroke="#79cdcd" d="M58.5,-52C58.5,-52 28.5,-52 28.5,-52 22.5,-52 16.5,-46 16.5,-40 16.5,-40 16.5,-28 16.5,-28 16.5,-22 22.5,-16 28.5,-16 28.5,-16 58.5,-16 58.5,-16 64.5,-16 70.5,-22 70.5,-28 70.5,-28 70.5,-40 70.5,-40 70.5,-46 64.5,-52 58.5,-52"/>
<text text-anchor="middle" x="43.5" y="-30.3" font-family="Helvetica,sans-Serif" font-size="14.00">util.ts</text>
</g>
</g>
</svg>
