<?xml version="1.0" encoding="UTF-8" standalone="no"?>
<!DOCTYPE svg PUBLIC "-//W3C//DTD SVG 1.1//EN"
 "http://www.w3.org/Graphics/SVG/1.1/DTD/svg11.dtd">
<!-- Generated by graphviz version 2.44.1 (20200629.0846)
 -->
<!-- Title: G Pages: 1 -->
<svg width="565pt" height="437pt"
 viewBox="0.00 0.00 565.00 437.00" xmlns="http://www.w3.org/2000/svg" xmlns:xlink="http://www.w3.org/1999/xlink">
<g id="graph0" class="graph" transform="scale(1 1) rotate(0) translate(4 433)">
<title>G</title>
<polygon fill="white" stroke="transparent" points="-4,4 -4,-433 561,-433 561,4 -4,4"/>
<g id="clust1" class="cluster">
<title>cluster6723605718</title>
<path fill="none" stroke="#8b7d6b" stroke-width="2" d="M20,-8C20,-8 537,-8 537,-8 543,-8 549,-14 549,-20 549,-20 549,-409 549,-409 549,-415 543,-421 537,-421 537,-421 20,-421 20,-421 14,-421 8,-415 8,-409 8,-409 8,-20 8,-20 8,-14 14,-8 20,-8"/>
<text text-anchor="start" x="268" y="-406.8" font-family="Helvetica,sans-Serif" font-weight="bold" font-size="14.00">src</text>
</g>
<g id="clust2" class="cluster">
<title>cluster4794301731</title>
<path fill="bisque" stroke="#8b7d6b" stroke-width="2" d="M28,-207C28,-207 202,-207 202,-207 208,-207 214,-213 214,-219 214,-219 214,-378 214,-378 214,-384 208,-390 202,-390 202,-390 28,-390 28,-390 22,-390 16,-384 16,-378 16,-378 16,-219 16,-219 16,-213 22,-207 28,-207"/>
<text text-anchor="start" x="87.5" y="-375.8" font-family="Helvetica,sans-Serif" font-weight="bold" font-size="14.00">example</text>
</g>
<g id="clust3" class="cluster">
<title>cluster1206226089</title>
<path fill="bisque" stroke="#8b7d6b" stroke-width="2" d="M63.5,-16C63.5,-16 166.5,-16 166.5,-16 172.5,-16 178.5,-22 178.5,-28 178.5,-28 178.5,-187 178.5,-187 178.5,-193 172.5,-199 166.5,-199 166.5,-199 63.5,-199 63.5,-199 57.5,-199 51.5,-193 51.5,-187 51.5,-187 51.5,-28 51.5,-28 51.5,-22 57.5,-16 63.5,-16"/>
<text text-anchor="start" x="102.5" y="-184.8" font-family="Helvetica,sans-Serif" font-weight="bold" font-size="14.00">test</text>
</g>
<!-- src/chan.ts -->
<g id="node1" class="node">
<title>src/chan.ts</title>
<path fill="#79cdcd" stroke="#79cdcd" d="M290,-251C290,-251 254,-251 254,-251 248,-251 242,-245 242,-239 242,-239 242,-227 242,-227 242,-221 248,-215 254,-215 254,-215 290,-215 290,-215 296,-215 302,-221 302,-227 302,-227 302,-239 302,-239 302,-245 296,-251 290,-251"/>
<text text-anchor="middle" x="272" y="-229.3" font-family="Helvetica,sans-Serif" font-size="14.00">chan.ts</text>
</g>
<!-- src/deferred.ts -->
<g id="node3" class="node">
<title>src/deferred.ts</title>
<path fill="#79cdcd" stroke="#79cdcd" d="M529,-132C529,-132 472,-132 472,-132 466,-132 460,-126 460,-120 460,-120 460,-108 460,-108 460,-102 466,-96 472,-96 472,-96 529,-96 529,-96 535,-96 541,-102 541,-108 541,-108 541,-120 541,-120 541,-126 535,-132 529,-132"/>
<text text-anchor="middle" x="500.5" y="-110.3" font-family="Helvetica,sans-Serif" font-size="14.00">deferred.ts</text>
</g>
<!-- src/chan.ts&#45;&gt;src/deferred.ts -->
<g id="edge1" class="edge">
<title>src/chan.ts&#45;&gt;src/deferred.ts</title>
<path fill="none" stroke="#528b8b" stroke-width="2" d="M302.15,-217.69C341.16,-197.19 410.67,-160.67 455.92,-136.9"/>
<polygon fill="#528b8b" stroke="#528b8b" stroke-width="2" points="457.68,-139.92 464.91,-132.17 454.43,-133.73 457.68,-139.92"/>
</g>
<!-- src/conveyor.ts -->
<g id="node2" class="node">
<title>src/conveyor.ts</title>
<path fill="#79cdcd" stroke="#79cdcd" d="M412,-114C412,-114 350,-114 350,-114 344,-114 338,-108 338,-102 338,-102 338,-90 338,-90 338,-84 344,-78 350,-78 350,-78 412,-78 412,-78 418,-78 424,-84 424,-90 424,-90 424,-102 424,-102 424,-108 418,-114 412,-114"/>
<text text-anchor="middle" x="381" y="-92.3" font-family="Helvetica,sans-Serif" font-size="14.00">conveyor.ts</text>
</g>
<!-- src/conveyor.ts&#45;&gt;src/deferred.ts -->
<g id="edge2" class="edge">
<title>src/conveyor.ts&#45;&gt;src/deferred.ts</title>
<path fill="none" stroke="#528b8b" stroke-width="2" d="M424.09,-102.45C432.33,-103.71 441.04,-105.05 449.51,-106.34"/>
<polygon fill="#528b8b" stroke="#528b8b" stroke-width="2" points="449.25,-109.84 459.67,-107.9 450.31,-102.92 449.25,-109.84"/>
</g>
<!-- src/lock.ts -->
<g id="node4" class="node">
<title>src/lock.ts</title>
<path fill="#79cdcd" stroke="#79cdcd" d="M287.5,-114C287.5,-114 256.5,-114 256.5,-114 250.5,-114 244.5,-108 244.5,-102 244.5,-102 244.5,-90 244.5,-90 244.5,-84 250.5,-78 256.5,-78 256.5,-78 287.5,-78 287.5,-78 293.5,-78 299.5,-84 299.5,-90 299.5,-90 299.5,-102 299.5,-102 299.5,-108 293.5,-114 287.5,-114"/>
<text text-anchor="middle" x="272" y="-92.3" font-family="Helvetica,sans-Serif" font-size="14.00">lock.ts</text>
</g>
<!-- src/lock.ts&#45;&gt;src/conveyor.ts -->
<g id="edge9" class="edge">
<title>src/lock.ts&#45;&gt;src/conveyor.ts</title>
<path fill="none" stroke="#528b8b" stroke-width="2" d="M299.72,-96C308.27,-96 318.04,-96 327.76,-96"/>
<polygon fill="#528b8b" stroke="#528b8b" stroke-width="2" points="327.81,-99.5 337.81,-96 327.81,-92.5 327.81,-99.5"/>
</g>
<!-- src/util.ts -->
<g id="node5" class="node">
<title>src/util.ts</title>
<path fill="#79cdcd" stroke="#79cdcd" d="M287,-183C287,-183 257,-183 257,-183 251,-183 245,-177 245,-171 245,-171 245,-159 245,-159 245,-153 251,-147 257,-147 257,-147 287,-147 287,-147 293,-147 299,-153 299,-159 299,-159 299,-171 299,-171 299,-177 293,-183 287,-183"/>
<text text-anchor="middle" x="272" y="-161.3" font-family="Helvetica,sans-Serif" font-size="14.00">util.ts</text>
</g>
<!-- src/example/chan&#45;producer&#45;consumer.ts -->
<g id="node6" class="node">
<title>src/example/chan&#45;producer&#45;consumer.ts</title>
<path fill="#79cdcd" stroke="#79cdcd" d="M194,-305C194,-305 36,-305 36,-305 30,-305 24,-299 24,-293 24,-293 24,-281 24,-281 24,-275 30,-269 36,-269 36,-269 194,-269 194,-269 200,-269 206,-275 206,-281 206,-281 206,-293 206,-293 206,-299 200,-305 194,-305"/>
<text text-anchor="middle" x="115" y="-283.3" font-family="Helvetica,sans-Serif" font-size="14.00">chan&#45;producer&#45;consumer.ts</text>
</g>
<!-- src/example/chan&#45;producer&#45;consumer.ts&#45;&gt;src/chan.ts -->
<g id="edge3" class="edge">
<title>src/example/chan&#45;producer&#45;consumer.ts&#45;&gt;src/chan.ts</title>
<path fill="none" stroke="#528b8b" stroke-width="2" d="M187.12,-268.98C196.25,-266.21 205.4,-263.2 214,-260 220.06,-257.75 226.36,-255.1 232.47,-252.35"/>
<polygon fill="#528b8b" stroke="#528b8b" stroke-width="2" points="234.24,-255.39 241.83,-248.01 231.29,-249.04 234.24,-255.39"/>
</g>
<!-- src/example/chan&#45;producer&#45;consumer.ts&#45;&gt;src/util.ts -->
<g id="edge4" class="edge">
<title>src/example/chan&#45;producer&#45;consumer.ts&#45;&gt;src/util.ts</title>
<path fill="none" stroke="#528b8b" stroke-width="2" d="M200.66,-268.82C205.39,-266.25 209.89,-263.33 214,-260 235.01,-242.99 227.94,-229.09 242,-206 244.95,-201.16 248.27,-196.13 251.58,-191.33"/>
<polygon fill="#528b8b" stroke="#528b8b" stroke-width="2" points="254.55,-193.2 257.46,-183.01 248.83,-189.16 254.55,-193.2"/>
</g>
<!-- src/example/chan&#45;zip&#45;seal.ts -->
<g id="node7" class="node">
<title>src/example/chan&#45;zip&#45;seal.ts</title>
<path fill="#79cdcd" stroke="#79cdcd" d="M158.5,-251C158.5,-251 71.5,-251 71.5,-251 65.5,-251 59.5,-245 59.5,-239 59.5,-239 59.5,-227 59.5,-227 59.5,-221 65.5,-215 71.5,-215 71.5,-215 158.5,-215 158.5,-215 164.5,-215 170.5,-221 170.5,-227 170.5,-227 170.5,-239 170.5,-239 170.5,-245 164.5,-251 158.5,-251"/>
<text text-anchor="middle" x="115" y="-229.3" font-family="Helvetica,sans-Serif" font-size="14.00">chan&#45;zip&#45;seal.ts</text>
</g>
<!-- src/example/chan&#45;zip&#45;seal.ts&#45;&gt;src/chan.ts -->
<g id="edge5" class="edge">
<title>src/example/chan&#45;zip&#45;seal.ts&#45;&gt;src/chan.ts</title>
<path fill="none" stroke="#528b8b" stroke-width="2" d="M170.65,-233C190.7,-233 213,-233 231.48,-233"/>
<polygon fill="#528b8b" stroke="#528b8b" stroke-width="2" points="231.59,-236.5 241.59,-233 231.59,-229.5 231.59,-236.5"/>
</g>
<!-- src/example/chan&#45;zip&#45;seal.ts&#45;&gt;src/util.ts -->
<g id="edge6" class="edge">
<title>src/example/chan&#45;zip&#45;seal.ts&#45;&gt;src/util.ts</title>
<path fill="none" stroke="#528b8b" stroke-width="2" d="M170.72,-219.32C185.12,-214.9 200.41,-209.44 214,-203 222.36,-199.04 230.89,-193.98 238.73,-188.86"/>
<polygon fill="#528b8b" stroke="#528b8b" stroke-width="2" points="240.92,-191.6 247.24,-183.1 236.99,-185.81 240.92,-191.6"/>
</g>
<!-- src/example/chan&#45;zip.ts -->
<g id="node8" class="node">
<title>src/example/chan&#45;zip.ts</title>
<path fill="#79cdcd" stroke="#79cdcd" d="M144,-359C144,-359 86,-359 86,-359 80,-359 74,-353 74,-347 74,-347 74,-335 74,-335 74,-329 80,-323 86,-323 86,-323 144,-323 144,-323 150,-323 156,-329 156,-335 156,-335 156,-347 156,-347 156,-353 150,-359 144,-359"/>
<text text-anchor="middle" x="115" y="-337.3" font-family="Helvetica,sans-Serif" font-size="14.00">chan&#45;zip.ts</text>
</g>
<!-- src/example/chan&#45;zip.ts&#45;&gt;src/chan.ts -->
<g id="edge7" class="edge">
<title>src/example/chan&#45;zip.ts&#45;&gt;src/chan.ts</title>
<path fill="none" stroke="#528b8b" stroke-width="2" d="M156.37,-336.27C175.19,-332.54 197.11,-325.88 214,-314 233.22,-300.47 248.17,-278.3 257.92,-260.57"/>
<polygon fill="#528b8b" stroke="#528b8b" stroke-width="2" points="261.26,-261.74 262.8,-251.26 255.06,-258.49 261.26,-261.74"/>
</g>
<!-- src/example/chan&#45;zip.ts&#45;&gt;src/util.ts -->
<g id="edge8" class="edge">
<title>src/example/chan&#45;zip.ts&#45;&gt;src/util.ts</title>
<path fill="none" stroke="#528b8b" stroke-width="2" d="M156.02,-339.16C175.93,-336.19 198.89,-329.34 214,-314 248.8,-278.67 221.12,-250.98 242,-206 244.24,-201.18 247.05,-196.33 250.04,-191.74"/>
<polygon fill="#528b8b" stroke="#528b8b" stroke-width="2" points="253.07,-193.52 255.91,-183.31 247.33,-189.52 253.07,-193.52"/>
</g>
<!-- src/test/chan.test.ts -->
<g id="node9" class="node">
<title>src/test/chan.test.ts</title>
<path fill="#79cdcd" stroke="#79cdcd" d="M146,-168C146,-168 84,-168 84,-168 78,-168 72,-162 72,-156 72,-156 72,-144 72,-144 72,-138 78,-132 84,-132 84,-132 146,-132 146,-132 152,-132 158,-138 158,-144 158,-144 158,-156 158,-156 158,-162 152,-168 146,-168"/>
<text text-anchor="middle" x="115" y="-146.3" font-family="Helvetica,sans-Serif" font-size="14.00">chan.test.ts</text>
</g>
<!-- src/test/chan.test.ts&#45;&gt;src/chan.ts -->
<g id="edge10" class="edge">
<title>src/test/chan.test.ts&#45;&gt;src/chan.ts</title>
<path fill="none" stroke="#528b8b" stroke-width="2" d="M149.63,-168.01C174.14,-181.13 207.36,-198.92 232.86,-212.57"/>
<polygon fill="#528b8b" stroke="#528b8b" stroke-width="2" points="231.4,-215.76 241.87,-217.4 234.7,-209.59 231.4,-215.76"/>
</g>
<!-- src/test/chan.test.ts&#45;&gt;src/util.ts -->
<g id="edge11" class="edge">
<title>src/test/chan.test.ts&#45;&gt;src/util.ts</title>
<path fill="none" stroke="#528b8b" stroke-width="2" d="M158.35,-154.1C182.3,-156.42 211.91,-159.28 234.77,-161.49"/>
<polygon fill="#528b8b" stroke="#528b8b" stroke-width="2" points="234.46,-164.98 244.75,-162.46 235.13,-158.01 234.46,-164.98"/>
</g>
<!-- src/test/conveyor.test.ts -->
<g id="node10" class="node">
<title>src/test/conveyor.test.ts</title>
<path fill="#79cdcd" stroke="#79cdcd" d="M158.5,-60C158.5,-60 71.5,-60 71.5,-60 65.5,-60 59.5,-54 59.5,-48 59.5,-48 59.5,-36 59.5,-36 59.5,-30 65.5,-24 71.5,-24 71.5,-24 158.5,-24 158.5,-24 164.5,-24 170.5,-30 170.5,-36 170.5,-36 170.5,-48 170.5,-48 170.5,-54 164.5,-60 158.5,-60"/>
<text text-anchor="middle" x="115" y="-38.3" font-family="Helvetica,sans-Serif" font-size="14.00">conveyor.test.ts</text>
</g>
<!-- src/test/conveyor.test.ts&#45;&gt;src/conveyor.ts -->
<g id="edge12" class="edge">
<title>src/test/conveyor.test.ts&#45;&gt;src/conveyor.ts</title>
<path fill="none" stroke="#528b8b" stroke-width="2" d="M170.64,-47.18C207.98,-51.39 258.41,-58.39 302,-69 310.6,-71.09 319.59,-73.75 328.28,-76.57"/>
<polygon fill="#528b8b" stroke="#528b8b" stroke-width="2" points="327.33,-79.94 337.93,-79.81 329.56,-73.31 327.33,-79.94"/>
</g>
<!-- src/test/conveyor.test.ts&#45;&gt;src/util.ts -->
<g id="edge13" class="edge">
<title>src/test/conveyor.test.ts&#45;&gt;src/util.ts</title>
<path fill="none" stroke="#528b8b" stroke-width="2" d="M170.61,-48.73C185.88,-52.7 201.66,-59 214,-69 235.01,-86.01 228.07,-99.83 242,-123 245.1,-128.16 248.6,-133.53 252.06,-138.65"/>
<polygon fill="#528b8b" stroke="#528b8b" stroke-width="2" points="249.22,-140.69 257.78,-146.93 254.98,-136.71 249.22,-140.69"/>
</g>
<!-- src/test/lock.test.ts -->
<g id="node11" class="node">
<title>src/test/lock.test.ts</title>
<path fill="#79cdcd" stroke="#79cdcd" d="M143,-114C143,-114 87,-114 87,-114 81,-114 75,-108 75,-102 75,-102 75,-90 75,-90 75,-84 81,-78 87,-78 87,-78 143,-78 143,-78 149,-78 155,-84 155,-90 155,-90 155,-102 155,-102 155,-108 149,-114 143,-114"/>
<text text-anchor="middle" x="115" y="-92.3" font-family="Helvetica,sans-Serif" font-size="14.00">lock.test.ts</text>
</g>
<!-- src/test/lock.test.ts&#45;&gt;src/lock.ts -->
<g id="edge14" class="edge">
<title>src/test/lock.test.ts&#45;&gt;src/lock.ts</title>
<path fill="none" stroke="#528b8b" stroke-width="2" d="M155.11,-96C179.33,-96 210.24,-96 234.04,-96"/>
<polygon fill="#528b8b" stroke="#528b8b" stroke-width="2" points="234.1,-99.5 244.1,-96 234.1,-92.5 234.1,-99.5"/>
</g>
<!-- src/test/lock.test.ts&#45;&gt;src/util.ts -->
<g id="edge15" class="edge">
<title>src/test/lock.test.ts&#45;&gt;src/util.ts</title>
<path fill="none" stroke="#528b8b" stroke-width="2" d="M155.35,-103.37C173.74,-107.68 195.58,-114.06 214,-123 223.8,-127.76 233.65,-134.26 242.34,-140.73"/>
<polygon fill="#528b8b" stroke="#528b8b" stroke-width="2" points="240.22,-143.51 250.28,-146.85 244.5,-137.97 240.22,-143.51"/>
</g>
</g>
</svg>
