<?xml version="1.0" encoding="UTF-8" standalone="no"?>
<!DOCTYPE svg PUBLIC "-//W3C//DTD SVG 1.1//EN"
 "http://www.w3.org/Graphics/SVG/1.1/DTD/svg11.dtd">
<!-- Generated by graphviz version 2.44.1 (20200629.0846)
 -->
<!-- Title: G Pages: 1 -->
<svg width="456pt" height="437pt"
 viewBox="0.00 0.00 456.00 437.00" xmlns="http://www.w3.org/2000/svg" xmlns:xlink="http://www.w3.org/1999/xlink">
<g id="graph0" class="graph" transform="scale(1 1) rotate(0) translate(4 433)">
<title>G</title>
<polygon fill="white" stroke="transparent" points="-4,4 -4,-433 452,-433 452,4 -4,4"/>
<g id="clust1" class="cluster">
<title>cluster1055115927</title>
<path fill="none" stroke="#8b7d6b" stroke-width="2" d="M20,-8C20,-8 428,-8 428,-8 434,-8 440,-14 440,-20 440,-20 440,-409 440,-409 440,-415 434,-421 428,-421 428,-421 20,-421 20,-421 14,-421 8,-415 8,-409 8,-409 8,-20 8,-20 8,-14 14,-8 20,-8"/>
<text text-anchor="start" x="213.5" y="-406.8" font-family="Helvetica,sans-Serif" font-weight="bold" font-size="14.00">src</text>
</g>
<g id="clust2" class="cluster">
<title>cluster640717230</title>
<path fill="bisque" stroke="#8b7d6b" stroke-width="2" d="M28,-207C28,-207 202,-207 202,-207 208,-207 214,-213 214,-219 214,-219 214,-378 214,-378 214,-384 208,-390 202,-390 202,-390 28,-390 28,-390 22,-390 16,-384 16,-378 16,-378 16,-219 16,-219 16,-213 22,-207 28,-207"/>
<text text-anchor="start" x="87.5" y="-375.8" font-family="Helvetica,sans-Serif" font-weight="bold" font-size="14.00">example</text>
</g>
<g id="clust3" class="cluster">
<title>cluster3159672447</title>
<path fill="bisque" stroke="#8b7d6b" stroke-width="2" d="M63.5,-16C63.5,-16 166.5,-16 166.5,-16 172.5,-16 178.5,-22 178.5,-28 178.5,-28 178.5,-187 178.5,-187 178.5,-193 172.5,-199 166.5,-199 166.5,-199 63.5,-199 63.5,-199 57.5,-199 51.5,-193 51.5,-187 51.5,-187 51.5,-28 51.5,-28 51.5,-22 57.5,-16 63.5,-16"/>
<text text-anchor="start" x="102.5" y="-184.8" font-family="Helvetica,sans-Serif" font-weight="bold" font-size="14.00">test</text>
</g>
<!-- src/chan.ts -->
<g id="node1" class="node">
<title>src/chan.ts</title>
<path fill="#79cdcd" stroke="#79cdcd" d="M294,-278C294,-278 258,-278 258,-278 252,-278 246,-272 246,-266 246,-266 246,-254 246,-254 246,-248 252,-242 258,-242 258,-242 294,-242 294,-242 300,-242 306,-248 306,-254 306,-254 306,-266 306,-266 306,-272 300,-278 294,-278"/>
<text text-anchor="middle" x="276" y="-256.3" font-family="Helvetica,sans-Serif" font-size="14.00">chan.ts</text>
</g>
<!-- src/deferred.ts -->
<g id="node3" class="node">
<title>src/deferred.ts</title>
<path fill="#79cdcd" stroke="#79cdcd" d="M417.5,-278C417.5,-278 360.5,-278 360.5,-278 354.5,-278 348.5,-272 348.5,-266 348.5,-266 348.5,-254 348.5,-254 348.5,-248 354.5,-242 360.5,-242 360.5,-242 417.5,-242 417.5,-242 423.5,-242 429.5,-248 429.5,-254 429.5,-254 429.5,-266 429.5,-266 429.5,-272 423.5,-278 417.5,-278"/>
<text text-anchor="middle" x="389" y="-256.3" font-family="Helvetica,sans-Serif" font-size="14.00">deferred.ts</text>
</g>
<!-- src/chan.ts&#45;&gt;src/deferred.ts -->
<g id="edge1" class="edge">
<title>src/chan.ts&#45;&gt;src/deferred.ts</title>
<path fill="none" stroke="#528b8b" stroke-width="2" d="M306.16,-260C315.9,-260 327.04,-260 337.91,-260"/>
<polygon fill="#528b8b" stroke="#528b8b" stroke-width="2" points="338.18,-263.5 348.18,-260 338.18,-256.5 338.18,-263.5"/>
</g>
<!-- src/conveyor.ts -->
<g id="node2" class="node">
<title>src/conveyor.ts</title>
<path fill="#79cdcd" stroke="#79cdcd" d="M420,-92C420,-92 358,-92 358,-92 352,-92 346,-86 346,-80 346,-80 346,-68 346,-68 346,-62 352,-56 358,-56 358,-56 420,-56 420,-56 426,-56 432,-62 432,-68 432,-68 432,-80 432,-80 432,-86 426,-92 420,-92"/>
<text text-anchor="middle" x="389" y="-70.3" font-family="Helvetica,sans-Serif" font-size="14.00">conveyor.ts</text>
</g>
<!-- src/mutex.ts -->
<g id="node4" class="node">
<title>src/mutex.ts</title>
<path fill="#79cdcd" stroke="#79cdcd" d="M298,-110C298,-110 254,-110 254,-110 248,-110 242,-104 242,-98 242,-98 242,-86 242,-86 242,-80 248,-74 254,-74 254,-74 298,-74 298,-74 304,-74 310,-80 310,-86 310,-86 310,-98 310,-98 310,-104 304,-110 298,-110"/>
<text text-anchor="middle" x="276" y="-88.3" font-family="Helvetica,sans-Serif" font-size="14.00">mutex.ts</text>
</g>
<!-- src/mutex.ts&#45;&gt;src/conveyor.ts -->
<g id="edge8" class="edge">
<title>src/mutex.ts&#45;&gt;src/conveyor.ts</title>
<path fill="none" stroke="#528b8b" stroke-width="2" d="M310,-86.65C318.18,-85.32 327.13,-83.87 335.97,-82.44"/>
<polygon fill="#528b8b" stroke="#528b8b" stroke-width="2" points="336.54,-85.89 345.85,-80.84 335.42,-78.98 336.54,-85.89"/>
</g>
<!-- src/util.ts -->
<g id="node5" class="node">
<title>src/util.ts</title>
<path fill="#79cdcd" stroke="#79cdcd" d="M291,-210C291,-210 261,-210 261,-210 255,-210 249,-204 249,-198 249,-198 249,-186 249,-186 249,-180 255,-174 261,-174 261,-174 291,-174 291,-174 297,-174 303,-180 303,-186 303,-186 303,-198 303,-198 303,-204 297,-210 291,-210"/>
<text text-anchor="middle" x="276" y="-188.3" font-family="Helvetica,sans-Serif" font-size="14.00">util.ts</text>
</g>
<!-- src/example/chan&#45;producer&#45;consumer.ts -->
<g id="node6" class="node">
<title>src/example/chan&#45;producer&#45;consumer.ts</title>
<path fill="#79cdcd" stroke="#79cdcd" d="M194,-305C194,-305 36,-305 36,-305 30,-305 24,-299 24,-293 24,-293 24,-281 24,-281 24,-275 30,-269 36,-269 36,-269 194,-269 194,-269 200,-269 206,-275 206,-281 206,-281 206,-293 206,-293 206,-299 200,-305 194,-305"/>
<text text-anchor="middle" x="115" y="-283.3" font-family="Helvetica,sans-Serif" font-size="14.00">chan&#45;producer&#45;consumer.ts</text>
</g>
<!-- src/example/chan&#45;producer&#45;consumer.ts&#45;&gt;src/chan.ts -->
<g id="edge2" class="edge">
<title>src/example/chan&#45;producer&#45;consumer.ts&#45;&gt;src/chan.ts</title>
<path fill="none" stroke="#528b8b" stroke-width="2" d="M206.19,-271.69C216.57,-269.92 226.71,-268.2 235.88,-266.64"/>
<polygon fill="#528b8b" stroke="#528b8b" stroke-width="2" points="236.5,-270.09 245.78,-264.96 235.33,-263.19 236.5,-270.09"/>
</g>
<!-- src/example/chan&#45;producer&#45;consumer.ts&#45;&gt;src/util.ts -->
<g id="edge3" class="edge">
<title>src/example/chan&#45;producer&#45;consumer.ts&#45;&gt;src/util.ts</title>
<path fill="none" stroke="#528b8b" stroke-width="2" d="M196.51,-268.97C202.62,-266.36 208.52,-263.39 214,-260 223.39,-254.19 240.6,-234.59 254.36,-217.91"/>
<polygon fill="#528b8b" stroke="#528b8b" stroke-width="2" points="257.18,-220 260.78,-210.04 251.75,-215.57 257.18,-220"/>
</g>
<!-- src/example/chan&#45;zip&#45;seal.ts -->
<g id="node7" class="node">
<title>src/example/chan&#45;zip&#45;seal.ts</title>
<path fill="#79cdcd" stroke="#79cdcd" d="M158.5,-251C158.5,-251 71.5,-251 71.5,-251 65.5,-251 59.5,-245 59.5,-239 59.5,-239 59.5,-227 59.5,-227 59.5,-221 65.5,-215 71.5,-215 71.5,-215 158.5,-215 158.5,-215 164.5,-215 170.5,-221 170.5,-227 170.5,-227 170.5,-239 170.5,-239 170.5,-245 164.5,-251 158.5,-251"/>
<text text-anchor="middle" x="115" y="-229.3" font-family="Helvetica,sans-Serif" font-size="14.00">chan&#45;zip&#45;seal.ts</text>
</g>
<!-- src/example/chan&#45;zip&#45;seal.ts&#45;&gt;src/chan.ts -->
<g id="edge4" class="edge">
<title>src/example/chan&#45;zip&#45;seal.ts&#45;&gt;src/chan.ts</title>
<path fill="none" stroke="#528b8b" stroke-width="2" d="M170.72,-242.29C192.04,-245.91 216,-249.98 235.58,-253.31"/>
<polygon fill="#528b8b" stroke="#528b8b" stroke-width="2" points="235.22,-256.79 245.66,-255.02 236.39,-249.89 235.22,-256.79"/>
</g>
<!-- src/example/chan&#45;zip&#45;seal.ts&#45;&gt;src/util.ts -->
<g id="edge5" class="edge">
<title>src/example/chan&#45;zip&#45;seal.ts&#45;&gt;src/util.ts</title>
<path fill="none" stroke="#528b8b" stroke-width="2" d="M170.72,-218.89C193.31,-213.06 218.87,-206.47 239.03,-201.27"/>
<polygon fill="#528b8b" stroke="#528b8b" stroke-width="2" points="239.94,-204.66 248.75,-198.77 238.19,-197.88 239.94,-204.66"/>
</g>
<!-- src/example/chan&#45;zip.ts -->
<g id="node8" class="node">
<title>src/example/chan&#45;zip.ts</title>
<path fill="#79cdcd" stroke="#79cdcd" d="M144,-359C144,-359 86,-359 86,-359 80,-359 74,-353 74,-347 74,-347 74,-335 74,-335 74,-329 80,-323 86,-323 86,-323 144,-323 144,-323 150,-323 156,-329 156,-335 156,-335 156,-347 156,-347 156,-353 150,-359 144,-359"/>
<text text-anchor="middle" x="115" y="-337.3" font-family="Helvetica,sans-Serif" font-size="14.00">chan&#45;zip.ts</text>
</g>
<!-- src/example/chan&#45;zip.ts&#45;&gt;src/chan.ts -->
<g id="edge6" class="edge">
<title>src/example/chan&#45;zip.ts&#45;&gt;src/chan.ts</title>
<path fill="none" stroke="#528b8b" stroke-width="2" d="M156.2,-334.25C174.57,-330.1 196.16,-323.67 214,-314 227.71,-306.57 240.92,-295.52 251.53,-285.36"/>
<polygon fill="#528b8b" stroke="#528b8b" stroke-width="2" points="254.13,-287.7 258.75,-278.17 249.19,-282.74 254.13,-287.7"/>
</g>
<!-- src/example/chan&#45;zip.ts&#45;&gt;src/util.ts -->
<g id="edge7" class="edge">
<title>src/example/chan&#45;zip.ts&#45;&gt;src/util.ts</title>
<path fill="none" stroke="#528b8b" stroke-width="2" d="M156.02,-338.58C175.68,-335.44 198.43,-328.61 214,-314 241.78,-287.94 223.56,-266.33 242,-233 244.76,-228 248.15,-223 251.68,-218.3"/>
<polygon fill="#528b8b" stroke="#528b8b" stroke-width="2" points="254.62,-220.22 258.1,-210.21 249.14,-215.87 254.62,-220.22"/>
</g>
<!-- src/test/chan.test.ts -->
<g id="node9" class="node">
<title>src/test/chan.test.ts</title>
<path fill="#79cdcd" stroke="#79cdcd" d="M146,-168C146,-168 84,-168 84,-168 78,-168 72,-162 72,-156 72,-156 72,-144 72,-144 72,-138 78,-132 84,-132 84,-132 146,-132 146,-132 152,-132 158,-138 158,-144 158,-144 158,-156 158,-156 158,-162 152,-168 146,-168"/>
<text text-anchor="middle" x="115" y="-146.3" font-family="Helvetica,sans-Serif" font-size="14.00">chan.test.ts</text>
</g>
<!-- src/test/chan.test.ts&#45;&gt;src/chan.ts -->
<g id="edge9" class="edge">
<title>src/test/chan.test.ts&#45;&gt;src/chan.ts</title>
<path fill="none" stroke="#528b8b" stroke-width="2" d="M155.05,-168.22C173.58,-177.58 195.63,-189.78 214,-203 226.88,-212.26 239.89,-224.02 250.57,-234.45"/>
<polygon fill="#528b8b" stroke="#528b8b" stroke-width="2" points="248.35,-237.18 257.9,-241.76 253.29,-232.22 248.35,-237.18"/>
</g>
<!-- src/test/chan.test.ts&#45;&gt;src/util.ts -->
<g id="edge10" class="edge">
<title>src/test/chan.test.ts&#45;&gt;src/util.ts</title>
<path fill="none" stroke="#528b8b" stroke-width="2" d="M158.19,-161.14C183.31,-167.78 214.85,-176.11 238.82,-182.44"/>
<polygon fill="#528b8b" stroke="#528b8b" stroke-width="2" points="238.03,-185.85 248.59,-185.02 239.82,-179.09 238.03,-185.85"/>
</g>
<!-- src/test/conveyor.test.ts -->
<g id="node10" class="node">
<title>src/test/conveyor.test.ts</title>
<path fill="#79cdcd" stroke="#79cdcd" d="M158.5,-60C158.5,-60 71.5,-60 71.5,-60 65.5,-60 59.5,-54 59.5,-48 59.5,-48 59.5,-36 59.5,-36 59.5,-30 65.5,-24 71.5,-24 71.5,-24 158.5,-24 158.5,-24 164.5,-24 170.5,-30 170.5,-36 170.5,-36 170.5,-48 170.5,-48 170.5,-54 164.5,-60 158.5,-60"/>
<text text-anchor="middle" x="115" y="-38.3" font-family="Helvetica,sans-Serif" font-size="14.00">conveyor.test.ts</text>
</g>
<!-- src/test/conveyor.test.ts&#45;&gt;src/conveyor.ts -->
<g id="edge11" class="edge">
<title>src/test/conveyor.test.ts&#45;&gt;src/conveyor.ts</title>
<path fill="none" stroke="#528b8b" stroke-width="2" d="M170.72,-48.44C218.84,-54.1 288.42,-62.29 335.79,-67.86"/>
<polygon fill="#528b8b" stroke="#528b8b" stroke-width="2" points="335.5,-71.35 345.84,-69.04 336.32,-64.4 335.5,-71.35"/>
</g>
<!-- src/test/conveyor.test.ts&#45;&gt;src/util.ts -->
<g id="edge12" class="edge">
<title>src/test/conveyor.test.ts&#45;&gt;src/util.ts</title>
<path fill="none" stroke="#528b8b" stroke-width="2" d="M170.72,-48.59C186,-52.56 201.75,-58.89 214,-69 222.01,-75.61 247.39,-130.23 262.77,-164.43"/>
<polygon fill="#528b8b" stroke="#528b8b" stroke-width="2" points="259.73,-166.2 267.01,-173.89 266.12,-163.34 259.73,-166.2"/>
</g>
<!-- src/test/mutex.test.ts -->
<g id="node11" class="node">
<title>src/test/mutex.test.ts</title>
<path fill="#79cdcd" stroke="#79cdcd" d="M150,-114C150,-114 80,-114 80,-114 74,-114 68,-108 68,-102 68,-102 68,-90 68,-90 68,-84 74,-78 80,-78 80,-78 150,-78 150,-78 156,-78 162,-84 162,-90 162,-90 162,-102 162,-102 162,-108 156,-114 150,-114"/>
<text text-anchor="middle" x="115" y="-92.3" font-family="Helvetica,sans-Serif" font-size="14.00">mutex.test.ts</text>
</g>
<!-- src/test/mutex.test.ts&#45;&gt;src/mutex.ts -->
<g id="edge13" class="edge">
<title>src/test/mutex.test.ts&#45;&gt;src/mutex.ts</title>
<path fill="none" stroke="#528b8b" stroke-width="2" d="M162.42,-94.83C184.32,-94.28 210.29,-93.63 231.77,-93.09"/>
<polygon fill="#528b8b" stroke="#528b8b" stroke-width="2" points="232.01,-96.58 241.91,-92.83 231.83,-89.59 232.01,-96.58"/>
</g>
<!-- src/test/mutex.test.ts&#45;&gt;src/util.ts -->
<g id="edge14" class="edge">
<title>src/test/mutex.test.ts&#45;&gt;src/util.ts</title>
<path fill="none" stroke="#528b8b" stroke-width="2" d="M162.15,-102.98C179.34,-107.01 198.43,-113.28 214,-123 231.35,-133.83 246.59,-151.06 257.5,-165.59"/>
<polygon fill="#528b8b" stroke="#528b8b" stroke-width="2" points="254.71,-167.71 263.4,-173.77 260.38,-163.61 254.71,-167.71"/>
</g>
</g>
</svg>
