<?xml version="1.0" encoding="UTF-8" standalone="no"?>
<!DOCTYPE svg PUBLIC "-//W3C//DTD SVG 1.1//EN"
 "http://www.w3.org/Graphics/SVG/1.1/DTD/svg11.dtd">
<!-- Generated by graphviz version 2.44.1 (20200629.0846)
 -->
<!-- Title: G Pages: 1 -->
<svg width="827pt" height="680pt"
 viewBox="0.00 0.00 827.00 680.00" xmlns="http://www.w3.org/2000/svg" xmlns:xlink="http://www.w3.org/1999/xlink">
<g id="graph0" class="graph" transform="scale(1 1) rotate(0) translate(4 676)">
<title>G</title>
<polygon fill="white" stroke="transparent" points="-4,4 -4,-676 823,-676 823,4 -4,4"/>
<g id="clust1" class="cluster">
<title>cluster3617124457</title>
<path fill="none" stroke="#8b7d6b" stroke-width="2" d="M20,-44C20,-44 799,-44 799,-44 805,-44 811,-50 811,-56 811,-56 811,-652 811,-652 811,-658 805,-664 799,-664 799,-664 20,-664 20,-664 14,-664 8,-658 8,-652 8,-652 8,-56 8,-56 8,-50 14,-44 20,-44"/>
<text text-anchor="start" x="399" y="-649.8" font-family="Helvetica,sans-Serif" font-weight="bold" font-size="14.00">src</text>
</g>
<g id="clust2" class="cluster">
<title>cluster711544665</title>
<path fill="bisque" stroke="#8b7d6b" stroke-width="2" d="M28,-243C28,-243 540,-243 540,-243 546,-243 552,-249 552,-255 552,-255 552,-380 552,-380 552,-386 546,-392 540,-392 540,-392 28,-392 28,-392 22,-392 16,-386 16,-380 16,-380 16,-255 16,-255 16,-249 22,-243 28,-243"/>
<text text-anchor="start" x="247.5" y="-377.8" font-family="Helvetica,sans-Serif" font-weight="bold" font-size="14.00">benchmark</text>
</g>
<g id="clust3" class="cluster">
<title>cluster7397078218</title>
<path fill="bisque" stroke="#8b7d6b" stroke-width="2" d="M386,-400C386,-400 560,-400 560,-400 566,-400 572,-406 572,-412 572,-412 572,-571 572,-571 572,-577 566,-583 560,-583 560,-583 386,-583 386,-583 380,-583 374,-577 374,-571 374,-571 374,-412 374,-412 374,-406 380,-400 386,-400"/>
<text text-anchor="start" x="445.5" y="-568.8" font-family="Helvetica,sans-Serif" font-weight="bold" font-size="14.00">example</text>
</g>
<g id="clust4" class="cluster">
<title>cluster2257689938</title>
<path fill="bisque" stroke="#8b7d6b" stroke-width="2" d="M216,-52C216,-52 319,-52 319,-52 325,-52 331,-58 331,-64 331,-64 331,-223 331,-223 331,-229 325,-235 319,-235 319,-235 216,-235 216,-235 210,-235 204,-229 204,-223 204,-223 204,-64 204,-64 204,-58 210,-52 216,-52"/>
<text text-anchor="start" x="255" y="-220.8" font-family="Helvetica,sans-Serif" font-weight="bold" font-size="14.00">test</text>
</g>
<!-- src/chan.ts -->
<g id="node1" class="node">
<title>src/chan.ts</title>
<path fill="#79cdcd" stroke="#79cdcd" d="M661,-525C661,-525 625,-525 625,-525 619,-525 613,-519 613,-513 613,-513 613,-501 613,-501 613,-495 619,-489 625,-489 625,-489 661,-489 661,-489 667,-489 673,-495 673,-501 673,-501 673,-513 673,-513 673,-519 667,-525 661,-525"/>
<text text-anchor="middle" x="643" y="-503.3" font-family="Helvetica,sans-Serif" font-size="14.00">chan.ts</text>
</g>
<!-- src/deferred.ts -->
<g id="node3" class="node">
<title>src/deferred.ts</title>
<path fill="#79cdcd" stroke="#79cdcd" d="M791,-567C791,-567 734,-567 734,-567 728,-567 722,-561 722,-555 722,-555 722,-543 722,-543 722,-537 728,-531 734,-531 734,-531 791,-531 791,-531 797,-531 803,-537 803,-543 803,-543 803,-555 803,-555 803,-561 797,-567 791,-567"/>
<text text-anchor="middle" x="762.5" y="-545.3" font-family="Helvetica,sans-Serif" font-size="14.00">deferred.ts</text>
</g>
<!-- src/chan.ts&#45;&gt;src/deferred.ts -->
<g id="edge11" class="edge">
<title>src/chan.ts&#45;&gt;src/deferred.ts</title>
<path fill="none" stroke="#528b8b" stroke-width="2" d="M673.04,-517.38C684.86,-521.6 698.84,-526.6 712.17,-531.37"/>
<polygon fill="#528b8b" stroke="#528b8b" stroke-width="2" points="711.12,-534.71 721.71,-534.78 713.47,-528.12 711.12,-534.71"/>
</g>
<!-- src/conveyor.ts -->
<g id="node2" class="node">
<title>src/conveyor.ts</title>
<path fill="#79cdcd" stroke="#79cdcd" d="M674,-150C674,-150 612,-150 612,-150 606,-150 600,-144 600,-138 600,-138 600,-126 600,-126 600,-120 606,-114 612,-114 612,-114 674,-114 674,-114 680,-114 686,-120 686,-126 686,-126 686,-138 686,-138 686,-144 680,-150 674,-150"/>
<text text-anchor="middle" x="643" y="-128.3" font-family="Helvetica,sans-Serif" font-size="14.00">conveyor.ts</text>
</g>
<!-- src/conveyor.ts&#45;&gt;src/deferred.ts -->
<g id="edge12" class="edge">
<title>src/conveyor.ts&#45;&gt;src/deferred.ts</title>
<path fill="none" stroke="#528b8b" stroke-width="2" d="M650.3,-150.41C658.82,-175.52 674.27,-221.94 686,-262 713.63,-356.37 742.03,-469.54 754.69,-521.03"/>
<polygon fill="#528b8b" stroke="#528b8b" stroke-width="2" points="751.3,-521.89 757.08,-530.77 758.09,-520.23 751.3,-521.89"/>
</g>
<!-- heap -->
<g id="node16" class="node">
<title>heap</title>
<polygon fill="#cdc8b1" stroke="#8b8878" points="789.5,-36 739.5,-36 735.5,-32 735.5,0 785.5,0 789.5,-4 789.5,-36"/>
<polyline fill="none" stroke="#8b8878" points="785.5,-32 735.5,-32 "/>
<polyline fill="none" stroke="#8b8878" points="785.5,-32 785.5,0 "/>
<polyline fill="none" stroke="#8b8878" points="785.5,-32 789.5,-36 "/>
<text text-anchor="middle" x="762.5" y="-14.3" font-family="Helvetica,sans-Serif" font-size="14.00">heap</text>
</g>
<!-- src/conveyor.ts&#45;&gt;heap -->
<g id="edge26" class="edge">
<title>src/conveyor.ts&#45;&gt;heap</title>
<path fill="none" stroke="#8b8878" stroke-width="1.5" stroke-dasharray="5,2" d="M656.44,-113.71C670.62,-93.81 695.31,-61.94 722,-40 723.5,-38.77 725.08,-37.57 726.71,-36.4"/>
<polygon fill="#8b8878" stroke="#8b8878" stroke-width="1.5" points="728.66,-39.31 735.14,-30.93 724.84,-33.44 728.66,-39.31"/>
</g>
<!-- src/lock.ts -->
<g id="node4" class="node">
<title>src/lock.ts</title>
<path fill="#79cdcd" stroke="#79cdcd" d="M488.5,-150C488.5,-150 457.5,-150 457.5,-150 451.5,-150 445.5,-144 445.5,-138 445.5,-138 445.5,-126 445.5,-126 445.5,-120 451.5,-114 457.5,-114 457.5,-114 488.5,-114 488.5,-114 494.5,-114 500.5,-120 500.5,-126 500.5,-126 500.5,-138 500.5,-138 500.5,-144 494.5,-150 488.5,-150"/>
<text text-anchor="middle" x="473" y="-128.3" font-family="Helvetica,sans-Serif" font-size="14.00">lock.ts</text>
</g>
<!-- src/lock.ts&#45;&gt;src/conveyor.ts -->
<g id="edge19" class="edge">
<title>src/lock.ts&#45;&gt;src/conveyor.ts</title>
<path fill="none" stroke="#528b8b" stroke-width="2" d="M500.62,-132C524.46,-132 560.1,-132 589.63,-132"/>
<polygon fill="#528b8b" stroke="#528b8b" stroke-width="2" points="589.8,-135.5 599.8,-132 589.8,-128.5 589.8,-135.5"/>
</g>
<!-- src/util.ts -->
<g id="node5" class="node">
<title>src/util.ts</title>
<path fill="#79cdcd" stroke="#79cdcd" d="M658,-307C658,-307 628,-307 628,-307 622,-307 616,-301 616,-295 616,-295 616,-283 616,-283 616,-277 622,-271 628,-271 628,-271 658,-271 658,-271 664,-271 670,-277 670,-283 670,-283 670,-295 670,-295 670,-301 664,-307 658,-307"/>
<text text-anchor="middle" x="643" y="-285.3" font-family="Helvetica,sans-Serif" font-size="14.00">util.ts</text>
</g>
<!-- src/benchmark/benchmark&#45;runner.ts -->
<g id="node6" class="node">
<title>src/benchmark/benchmark&#45;runner.ts</title>
<path fill="#79cdcd" stroke="#79cdcd" d="M532,-307C532,-307 414,-307 414,-307 408,-307 402,-301 402,-295 402,-295 402,-283 402,-283 402,-277 408,-271 414,-271 414,-271 532,-271 532,-271 538,-271 544,-277 544,-283 544,-283 544,-295 544,-295 544,-301 538,-307 532,-307"/>
<text text-anchor="middle" x="473" y="-285.3" font-family="Helvetica,sans-Serif" font-size="14.00">benchmark&#45;runner.ts</text>
</g>
<!-- src/benchmark/benchmark&#45;runner.ts&#45;&gt;src/util.ts -->
<g id="edge1" class="edge">
<title>src/benchmark/benchmark&#45;runner.ts&#45;&gt;src/util.ts</title>
<path fill="none" stroke="#528b8b" stroke-width="2" d="M544.27,-289C565.47,-289 587.86,-289 605.86,-289"/>
<polygon fill="#528b8b" stroke="#528b8b" stroke-width="2" points="605.91,-292.5 615.91,-289 605.91,-285.5 605.91,-292.5"/>
</g>
<!-- src/benchmark/chan.benchmark.ts -->
<g id="node7" class="node">
<title>src/benchmark/chan.benchmark.ts</title>
<path fill="#79cdcd" stroke="#79cdcd" d="M321,-361C321,-361 214,-361 214,-361 208,-361 202,-355 202,-349 202,-349 202,-337 202,-337 202,-331 208,-325 214,-325 214,-325 321,-325 321,-325 327,-325 333,-331 333,-337 333,-337 333,-349 333,-349 333,-355 327,-361 321,-361"/>
<text text-anchor="middle" x="267.5" y="-339.3" font-family="Helvetica,sans-Serif" font-size="14.00">chan.benchmark.ts</text>
</g>
<!-- src/benchmark/chan.benchmark.ts&#45;&gt;src/chan.ts -->
<g id="edge2" class="edge">
<title>src/benchmark/chan.benchmark.ts&#45;&gt;src/chan.ts</title>
<path fill="none" stroke="#528b8b" stroke-width="2" d="M269.91,-361.31C274.65,-408.61 294.55,-534.79 374,-587 447.54,-635.33 491.86,-623.36 572,-587 595.97,-576.12 614.97,-552.52 627.08,-533.76"/>
<polygon fill="#528b8b" stroke="#528b8b" stroke-width="2" points="630.21,-535.37 632.47,-525.02 624.25,-531.69 630.21,-535.37"/>
</g>
<!-- src/benchmark/chan.benchmark.ts&#45;&gt;src/deferred.ts -->
<g id="edge3" class="edge">
<title>src/benchmark/chan.benchmark.ts&#45;&gt;src/deferred.ts</title>
<path fill="none" stroke="#528b8b" stroke-width="2" d="M269.27,-361.29C272.48,-411.13 289,-549.43 374,-607 488.87,-684.8 554.61,-641.55 686,-597 702.05,-591.56 718.13,-582.04 731.3,-572.9"/>
<polygon fill="#528b8b" stroke="#528b8b" stroke-width="2" points="733.43,-575.68 739.51,-567 729.35,-570 733.43,-575.68"/>
</g>
<!-- src/benchmark/chan.benchmark.ts&#45;&gt;src/benchmark/benchmark&#45;runner.ts -->
<g id="edge4" class="edge">
<title>src/benchmark/chan.benchmark.ts&#45;&gt;src/benchmark/benchmark&#45;runner.ts</title>
<path fill="none" stroke="#528b8b" stroke-width="2" d="M333.17,-325.84C352.57,-320.69 374.06,-314.99 394.22,-309.64"/>
<polygon fill="#528b8b" stroke="#528b8b" stroke-width="2" points="395.22,-312.99 403.99,-307.05 393.43,-306.23 395.22,-312.99"/>
</g>
<!-- src/benchmark/conveyor.benchmark.ts -->
<g id="node8" class="node">
<title>src/benchmark/conveyor.benchmark.ts</title>
<path fill="#79cdcd" stroke="#79cdcd" d="M334,-307C334,-307 201,-307 201,-307 195,-307 189,-301 189,-295 189,-295 189,-283 189,-283 189,-277 195,-271 201,-271 201,-271 334,-271 334,-271 340,-271 346,-277 346,-283 346,-283 346,-295 346,-295 346,-301 340,-307 334,-307"/>
<text text-anchor="middle" x="267.5" y="-285.3" font-family="Helvetica,sans-Serif" font-size="14.00">conveyor.benchmark.ts</text>
</g>
<!-- src/benchmark/conveyor.benchmark.ts&#45;&gt;src/conveyor.ts -->
<g id="edge5" class="edge">
<title>src/benchmark/conveyor.benchmark.ts&#45;&gt;src/conveyor.ts</title>
<path fill="none" stroke="#528b8b" stroke-width="2" d="M311.35,-270.99C380.39,-241.97 516.02,-184.96 590.32,-153.73"/>
<polygon fill="#528b8b" stroke="#528b8b" stroke-width="2" points="592.08,-156.78 599.94,-149.68 589.37,-150.33 592.08,-156.78"/>
</g>
<!-- src/benchmark/conveyor.benchmark.ts&#45;&gt;src/deferred.ts -->
<g id="edge6" class="edge">
<title>src/benchmark/conveyor.benchmark.ts&#45;&gt;src/deferred.ts</title>
<path fill="none" stroke="#528b8b" stroke-width="2" d="M336.86,-307.14C340.25,-309.71 343.35,-312.65 346,-316 383.56,-363.48 329.04,-546.45 374,-587 406.67,-616.47 528.22,-591.35 572,-587 620.12,-582.22 674.12,-570.78 712.13,-561.69"/>
<polygon fill="#528b8b" stroke="#528b8b" stroke-width="2" points="713.03,-565.08 721.92,-559.32 711.38,-558.27 713.03,-565.08"/>
</g>
<!-- src/benchmark/conveyor.benchmark.ts&#45;&gt;src/benchmark/benchmark&#45;runner.ts -->
<g id="edge7" class="edge">
<title>src/benchmark/conveyor.benchmark.ts&#45;&gt;src/benchmark/benchmark&#45;runner.ts</title>
<path fill="none" stroke="#528b8b" stroke-width="2" d="M346.02,-289C360.89,-289 376.5,-289 391.47,-289"/>
<polygon fill="#528b8b" stroke="#528b8b" stroke-width="2" points="391.71,-292.5 401.71,-289 391.71,-285.5 391.71,-292.5"/>
</g>
<!-- src/benchmark/run&#45;benchmarks.ts -->
<g id="node9" class="node">
<title>src/benchmark/run&#45;benchmarks.ts</title>
<path fill="#79cdcd" stroke="#79cdcd" d="M141,-307C141,-307 36,-307 36,-307 30,-307 24,-301 24,-295 24,-295 24,-283 24,-283 24,-277 30,-271 36,-271 36,-271 141,-271 141,-271 147,-271 153,-277 153,-283 153,-283 153,-295 153,-295 153,-301 147,-307 141,-307"/>
<text text-anchor="middle" x="88.5" y="-285.3" font-family="Helvetica,sans-Serif" font-size="14.00">run&#45;benchmarks.ts</text>
</g>
<!-- src/benchmark/run&#45;benchmarks.ts&#45;&gt;src/benchmark/benchmark&#45;runner.ts -->
<g id="edge8" class="edge">
<title>src/benchmark/run&#45;benchmarks.ts&#45;&gt;src/benchmark/benchmark&#45;runner.ts</title>
<path fill="none" stroke="#528b8b" stroke-width="2" d="M145.8,-270.94C159.77,-267.24 174.81,-263.89 189,-262 258.17,-252.78 276.61,-254.65 346,-262 351.31,-262.56 370.15,-266.45 391.71,-271.12"/>
<polygon fill="#528b8b" stroke="#528b8b" stroke-width="2" points="391.25,-274.6 401.77,-273.3 392.74,-267.76 391.25,-274.6"/>
</g>
<!-- src/benchmark/run&#45;benchmarks.ts&#45;&gt;src/benchmark/chan.benchmark.ts -->
<g id="edge10" class="edge">
<title>src/benchmark/run&#45;benchmarks.ts&#45;&gt;src/benchmark/chan.benchmark.ts</title>
<path fill="none" stroke="#528b8b" stroke-width="2" d="M148.93,-307.13C164.48,-311.88 181.38,-317.03 197.39,-321.92"/>
<polygon fill="#528b8b" stroke="#528b8b" stroke-width="2" points="196.64,-325.35 207.23,-324.92 198.68,-318.65 196.64,-325.35"/>
</g>
<!-- src/benchmark/run&#45;benchmarks.ts&#45;&gt;src/benchmark/conveyor.benchmark.ts -->
<g id="edge9" class="edge">
<title>src/benchmark/run&#45;benchmarks.ts&#45;&gt;src/benchmark/conveyor.benchmark.ts</title>
<path fill="none" stroke="#528b8b" stroke-width="2" d="M153.4,-289C161.66,-289 170.22,-289 178.78,-289"/>
<polygon fill="#528b8b" stroke="#528b8b" stroke-width="2" points="178.8,-292.5 188.8,-289 178.8,-285.5 178.8,-292.5"/>
</g>
<!-- src/example/chan&#45;producer&#45;consumer.ts -->
<g id="node10" class="node">
<title>src/example/chan&#45;producer&#45;consumer.ts</title>
<path fill="#79cdcd" stroke="#79cdcd" d="M552,-498C552,-498 394,-498 394,-498 388,-498 382,-492 382,-486 382,-486 382,-474 382,-474 382,-468 388,-462 394,-462 394,-462 552,-462 552,-462 558,-462 564,-468 564,-474 564,-474 564,-486 564,-486 564,-492 558,-498 552,-498"/>
<text text-anchor="middle" x="473" y="-476.3" font-family="Helvetica,sans-Serif" font-size="14.00">chan&#45;producer&#45;consumer.ts</text>
</g>
<!-- src/example/chan&#45;producer&#45;consumer.ts&#45;&gt;src/chan.ts -->
<g id="edge13" class="edge">
<title>src/example/chan&#45;producer&#45;consumer.ts&#45;&gt;src/chan.ts</title>
<path fill="none" stroke="#528b8b" stroke-width="2" d="M564.39,-494.53C577.83,-496.69 591.05,-498.81 602.66,-500.68"/>
<polygon fill="#528b8b" stroke="#528b8b" stroke-width="2" points="602.41,-504.18 612.84,-502.31 603.52,-497.27 602.41,-504.18"/>
</g>
<!-- src/example/chan&#45;producer&#45;consumer.ts&#45;&gt;src/util.ts -->
<g id="edge14" class="edge">
<title>src/example/chan&#45;producer&#45;consumer.ts&#45;&gt;src/util.ts</title>
<path fill="none" stroke="#528b8b" stroke-width="2" d="M559.42,-461.9C563.91,-459.32 568.15,-456.37 572,-453 612.84,-417.31 630.57,-353.66 637.69,-317.03"/>
<polygon fill="#528b8b" stroke="#528b8b" stroke-width="2" points="641.16,-317.49 639.5,-307.03 634.27,-316.24 641.16,-317.49"/>
</g>
<!-- src/example/chan&#45;zip&#45;seal.ts -->
<g id="node11" class="node">
<title>src/example/chan&#45;zip&#45;seal.ts</title>
<path fill="#79cdcd" stroke="#79cdcd" d="M516.5,-444C516.5,-444 429.5,-444 429.5,-444 423.5,-444 417.5,-438 417.5,-432 417.5,-432 417.5,-420 417.5,-420 417.5,-414 423.5,-408 429.5,-408 429.5,-408 516.5,-408 516.5,-408 522.5,-408 528.5,-414 528.5,-420 528.5,-420 528.5,-432 528.5,-432 528.5,-438 522.5,-444 516.5,-444"/>
<text text-anchor="middle" x="473" y="-422.3" font-family="Helvetica,sans-Serif" font-size="14.00">chan&#45;zip&#45;seal.ts</text>
</g>
<!-- src/example/chan&#45;zip&#45;seal.ts&#45;&gt;src/chan.ts -->
<g id="edge15" class="edge">
<title>src/example/chan&#45;zip&#45;seal.ts&#45;&gt;src/chan.ts</title>
<path fill="none" stroke="#528b8b" stroke-width="2" d="M528.54,-437.01C543.09,-441.01 558.5,-446.26 572,-453 587.43,-460.7 602.81,-472.05 615.2,-482.36"/>
<polygon fill="#528b8b" stroke="#528b8b" stroke-width="2" points="613.01,-485.09 622.88,-488.93 617.56,-479.77 613.01,-485.09"/>
</g>
<!-- src/example/chan&#45;zip&#45;seal.ts&#45;&gt;src/util.ts -->
<g id="edge16" class="edge">
<title>src/example/chan&#45;zip&#45;seal.ts&#45;&gt;src/util.ts</title>
<path fill="none" stroke="#528b8b" stroke-width="2" d="M528.54,-416.5C543.64,-412.04 559.34,-405.51 572,-396 599.3,-375.49 619.06,-341 630.49,-316.74"/>
<polygon fill="#528b8b" stroke="#528b8b" stroke-width="2" points="633.81,-317.9 634.74,-307.35 627.43,-315.02 633.81,-317.9"/>
</g>
<!-- src/example/chan&#45;zip.ts -->
<g id="node12" class="node">
<title>src/example/chan&#45;zip.ts</title>
<path fill="#79cdcd" stroke="#79cdcd" d="M502,-552C502,-552 444,-552 444,-552 438,-552 432,-546 432,-540 432,-540 432,-528 432,-528 432,-522 438,-516 444,-516 444,-516 502,-516 502,-516 508,-516 514,-522 514,-528 514,-528 514,-540 514,-540 514,-546 508,-552 502,-552"/>
<text text-anchor="middle" x="473" y="-530.3" font-family="Helvetica,sans-Serif" font-size="14.00">chan&#45;zip.ts</text>
</g>
<!-- src/example/chan&#45;zip.ts&#45;&gt;src/chan.ts -->
<g id="edge17" class="edge">
<title>src/example/chan&#45;zip.ts&#45;&gt;src/chan.ts</title>
<path fill="none" stroke="#528b8b" stroke-width="2" d="M514.24,-527.53C541.06,-523.22 576.15,-517.58 602.76,-513.31"/>
<polygon fill="#528b8b" stroke="#528b8b" stroke-width="2" points="603.55,-516.72 612.87,-511.68 602.44,-509.81 603.55,-516.72"/>
</g>
<!-- src/example/chan&#45;zip.ts&#45;&gt;src/util.ts -->
<g id="edge18" class="edge">
<title>src/example/chan&#45;zip.ts&#45;&gt;src/util.ts</title>
<path fill="none" stroke="#528b8b" stroke-width="2" d="M514.16,-531.72C533.85,-528.62 556.59,-521.78 572,-507 625.39,-455.8 638.15,-363.85 641.13,-317.44"/>
<polygon fill="#528b8b" stroke="#528b8b" stroke-width="2" points="644.64,-317.38 641.68,-307.21 637.65,-317.01 644.64,-317.38"/>
</g>
<!-- src/test/chan.test.ts -->
<g id="node13" class="node">
<title>src/test/chan.test.ts</title>
<path fill="#79cdcd" stroke="#79cdcd" d="M298.5,-204C298.5,-204 236.5,-204 236.5,-204 230.5,-204 224.5,-198 224.5,-192 224.5,-192 224.5,-180 224.5,-180 224.5,-174 230.5,-168 236.5,-168 236.5,-168 298.5,-168 298.5,-168 304.5,-168 310.5,-174 310.5,-180 310.5,-180 310.5,-192 310.5,-192 310.5,-198 304.5,-204 298.5,-204"/>
<text text-anchor="middle" x="267.5" y="-182.3" font-family="Helvetica,sans-Serif" font-size="14.00">chan.test.ts</text>
</g>
<!-- src/test/chan.test.ts&#45;&gt;src/chan.ts -->
<g id="edge20" class="edge">
<title>src/test/chan.test.ts&#45;&gt;src/chan.ts</title>
<path fill="none" stroke="#528b8b" stroke-width="2" d="M310.68,-200.24C329.82,-206.21 352.85,-212.75 374,-217 417.4,-225.72 538.51,-210.04 572,-239 581.26,-247.01 620.07,-411.81 635.57,-478.92"/>
<polygon fill="#528b8b" stroke="#528b8b" stroke-width="2" points="632.19,-479.86 637.85,-488.82 639.01,-478.29 632.19,-479.86"/>
</g>
<!-- src/test/chan.test.ts&#45;&gt;src/util.ts -->
<g id="edge21" class="edge">
<title>src/test/chan.test.ts&#45;&gt;src/util.ts</title>
<path fill="none" stroke="#528b8b" stroke-width="2" d="M310.66,-190.32C388.43,-198.48 548.71,-216.33 572,-227 590.38,-235.42 607.45,-250.32 620.13,-263.41"/>
<polygon fill="#528b8b" stroke="#528b8b" stroke-width="2" points="617.68,-265.92 627.06,-270.84 622.8,-261.14 617.68,-265.92"/>
</g>
<!-- jest -->
<g id="node17" class="node">
<title>jest</title>
<polygon fill="#cdc8b1" stroke="#8b8878" points="500,-36 450,-36 446,-32 446,0 496,0 500,-4 500,-36"/>
<polyline fill="none" stroke="#8b8878" points="496,-32 446,-32 "/>
<polyline fill="none" stroke="#8b8878" points="496,-32 496,0 "/>
<polyline fill="none" stroke="#8b8878" points="496,-32 500,-36 "/>
<text text-anchor="middle" x="473" y="-14.3" font-family="Helvetica,sans-Serif" font-size="14.00">jest</text>
</g>
<!-- src/test/chan.test.ts&#45;&gt;jest -->
<g id="edge27" class="edge">
<title>src/test/chan.test.ts&#45;&gt;jest</title>
<path fill="none" stroke="#8b8878" stroke-width="1.5" stroke-dasharray="5,2" d="M310.75,-179.45C323.66,-175.5 336.84,-169.16 346,-159 382.37,-118.63 335.38,-78.22 374,-40 390.11,-24.05 415.14,-18.63 435.87,-17.15"/>
<polygon fill="#8b8878" stroke="#8b8878" stroke-width="1.5" points="436.11,-20.65 445.95,-16.71 435.8,-13.65 436.11,-20.65"/>
</g>
<!-- src/test/conveyor.test.ts -->
<g id="node14" class="node">
<title>src/test/conveyor.test.ts</title>
<path fill="#79cdcd" stroke="#79cdcd" d="M311,-96C311,-96 224,-96 224,-96 218,-96 212,-90 212,-84 212,-84 212,-72 212,-72 212,-66 218,-60 224,-60 224,-60 311,-60 311,-60 317,-60 323,-66 323,-72 323,-72 323,-84 323,-84 323,-90 317,-96 311,-96"/>
<text text-anchor="middle" x="267.5" y="-74.3" font-family="Helvetica,sans-Serif" font-size="14.00">conveyor.test.ts</text>
</g>
<!-- src/test/conveyor.test.ts&#45;&gt;src/conveyor.ts -->
<g id="edge22" class="edge">
<title>src/test/conveyor.test.ts&#45;&gt;src/conveyor.ts</title>
<path fill="none" stroke="#528b8b" stroke-width="2" d="M323.22,-78.3C384.56,-79.68 486.6,-85.14 572,-105 578.24,-106.45 584.68,-108.34 590.99,-110.45"/>
<polygon fill="#528b8b" stroke="#528b8b" stroke-width="2" points="590.18,-113.88 600.77,-113.91 592.51,-107.28 590.18,-113.88"/>
</g>
<!-- src/test/conveyor.test.ts&#45;&gt;src/util.ts -->
<g id="edge23" class="edge">
<title>src/test/conveyor.test.ts&#45;&gt;src/util.ts</title>
<path fill="none" stroke="#528b8b" stroke-width="2" d="M323.06,-91.05C331.33,-94.65 339.32,-99.22 346,-105 366.43,-122.7 351.48,-144.04 374,-159 410.77,-183.43 534.38,-151.91 572,-175 603.6,-194.39 623,-233.91 633.14,-260.93"/>
<polygon fill="#528b8b" stroke="#528b8b" stroke-width="2" points="629.93,-262.35 636.58,-270.6 636.53,-260.01 629.93,-262.35"/>
</g>
<!-- src/test/conveyor.test.ts&#45;&gt;jest -->
<g id="edge28" class="edge">
<title>src/test/conveyor.test.ts&#45;&gt;jest</title>
<path fill="none" stroke="#8b8878" stroke-width="1.5" stroke-dasharray="5,2" d="M314.57,-59.99C332.9,-53.2 354.28,-45.74 374,-40 394.34,-34.08 417.45,-28.82 436.12,-24.93"/>
<polygon fill="#8b8878" stroke="#8b8878" stroke-width="1.5" points="436.89,-28.35 445.98,-22.92 435.49,-21.49 436.89,-28.35"/>
</g>
<!-- src/test/lock.test.ts -->
<g id="node15" class="node">
<title>src/test/lock.test.ts</title>
<path fill="#79cdcd" stroke="#79cdcd" d="M295.5,-150C295.5,-150 239.5,-150 239.5,-150 233.5,-150 227.5,-144 227.5,-138 227.5,-138 227.5,-126 227.5,-126 227.5,-120 233.5,-114 239.5,-114 239.5,-114 295.5,-114 295.5,-114 301.5,-114 307.5,-120 307.5,-126 307.5,-126 307.5,-138 307.5,-138 307.5,-144 301.5,-150 295.5,-150"/>
<text text-anchor="middle" x="267.5" y="-128.3" font-family="Helvetica,sans-Serif" font-size="14.00">lock.test.ts</text>
</g>
<!-- src/test/lock.test.ts&#45;&gt;src/lock.ts -->
<g id="edge24" class="edge">
<title>src/test/lock.test.ts&#45;&gt;src/lock.ts</title>
<path fill="none" stroke="#528b8b" stroke-width="2" d="M307.74,-132C344.53,-132 399.13,-132 435.13,-132"/>
<polygon fill="#528b8b" stroke="#528b8b" stroke-width="2" points="435.21,-135.5 445.21,-132 435.21,-128.5 435.21,-135.5"/>
</g>
<!-- src/test/lock.test.ts&#45;&gt;src/util.ts -->
<g id="edge25" class="edge">
<title>src/test/lock.test.ts&#45;&gt;src/util.ts</title>
<path fill="none" stroke="#528b8b" stroke-width="2" d="M307.68,-144.09C320.12,-148.34 333.81,-153.45 346,-159 359.04,-164.94 360.36,-170.59 374,-175 458.21,-202.2 495.01,-152.37 572,-196 598.19,-210.84 617.6,-239.9 629.25,-261.6"/>
<polygon fill="#528b8b" stroke="#528b8b" stroke-width="2" points="626.24,-263.39 633.92,-270.69 632.46,-260.19 626.24,-263.39"/>
</g>
<!-- src/test/lock.test.ts&#45;&gt;jest -->
<g id="edge29" class="edge">
<title>src/test/lock.test.ts&#45;&gt;jest</title>
<path fill="none" stroke="#8b8878" stroke-width="1.5" stroke-dasharray="5,2" d="M307.75,-125.08C321.18,-121.08 335.47,-114.81 346,-105 369.02,-83.57 349.79,-60.08 374,-40 391.14,-25.78 415.58,-20.27 435.76,-18.33"/>
<polygon fill="#8b8878" stroke="#8b8878" stroke-width="1.5" points="436.14,-21.81 445.86,-17.6 435.64,-14.82 436.14,-21.81"/>
</g>
</g>
</svg>
