<?xml version="1.0" encoding="UTF-8" standalone="no"?>
<!DOCTYPE svg PUBLIC "-//W3C//DTD SVG 1.1//EN"
 "http://www.w3.org/Graphics/SVG/1.1/DTD/svg11.dtd">
<!-- Generated by graphviz version 2.44.1 (20200629.0846)
 -->
<!-- Title: G Pages: 1 -->
<svg width="334pt" height="189pt"
 viewBox="0.00 0.00 334.00 189.00" xmlns="http://www.w3.org/2000/svg" xmlns:xlink="http://www.w3.org/1999/xlink">
<g id="graph0" class="graph" transform="scale(1 1) rotate(0) translate(4 185)">
<title>G</title>
<polygon fill="white" stroke="transparent" points="-4,4 -4,-185 330,-185 330,4 -4,4"/>
<g id="clust1" class="cluster">
<title>cluster6282160516</title>
<path fill="none" stroke="#8b7d6b" stroke-width="2" d="M20,-44C20,-44 306,-44 306,-44 312,-44 318,-50 318,-56 318,-56 318,-161 318,-161 318,-167 312,-173 306,-173 306,-173 20,-173 20,-173 14,-173 8,-167 8,-161 8,-161 8,-56 8,-56 8,-50 14,-44 20,-44"/>
<text text-anchor="start" x="152.5" y="-158.8" font-family="Helvetica,sans-Serif" font-weight="bold" font-size="14.00">src</text>
</g>
<!-- src/chan.ts -->
<g id="node1" class="node">
<title>src/chan.ts</title>
<path fill="#79cdcd" stroke="#79cdcd" d="M168,-142C168,-142 132,-142 132,-142 126,-142 120,-136 120,-130 120,-130 120,-118 120,-118 120,-112 126,-106 132,-106 132,-106 168,-106 168,-106 174,-106 180,-112 180,-118 180,-118 180,-130 180,-130 180,-136 174,-142 168,-142"/>
<text text-anchor="middle" x="150" y="-120.3" font-family="Helvetica,sans-Serif" font-size="14.00">chan.ts</text>
</g>
<!-- src/deferred.ts -->
<g id="node3" class="node">
<title>src/deferred.ts</title>
<path fill="#79cdcd" stroke="#79cdcd" d="M298,-116C298,-116 241,-116 241,-116 235,-116 229,-110 229,-104 229,-104 229,-92 229,-92 229,-86 235,-80 241,-80 241,-80 298,-80 298,-80 304,-80 310,-86 310,-92 310,-92 310,-104 310,-104 310,-110 304,-116 298,-116"/>
<text text-anchor="middle" x="269.5" y="-94.3" font-family="Helvetica,sans-Serif" font-size="14.00">deferred.ts</text>
</g>
<!-- src/chan.ts&#45;&gt;src/deferred.ts -->
<g id="edge1" class="edge">
<title>src/chan.ts&#45;&gt;src/deferred.ts</title>
<path fill="none" stroke="#528b8b" stroke-width="2" d="M180.04,-117.57C191.74,-114.98 205.57,-111.92 218.78,-109"/>
<polygon fill="#528b8b" stroke="#528b8b" stroke-width="2" points="219.7,-112.38 228.71,-106.8 218.19,-105.55 219.7,-112.38"/>
</g>
<!-- src/conveyor.ts -->
<g id="node2" class="node">
<title>src/conveyor.ts</title>
<path fill="#79cdcd" stroke="#79cdcd" d="M181,-88C181,-88 119,-88 119,-88 113,-88 107,-82 107,-76 107,-76 107,-64 107,-64 107,-58 113,-52 119,-52 119,-52 181,-52 181,-52 187,-52 193,-58 193,-64 193,-64 193,-76 193,-76 193,-82 187,-88 181,-88"/>
<text text-anchor="middle" x="150" y="-66.3" font-family="Helvetica,sans-Serif" font-size="14.00">conveyor.ts</text>
</g>
<!-- src/conveyor.ts&#45;&gt;src/deferred.ts -->
<g id="edge2" class="edge">
<title>src/conveyor.ts&#45;&gt;src/deferred.ts</title>
<path fill="none" stroke="#528b8b" stroke-width="2" d="M193.09,-80.03C201.42,-82.01 210.24,-84.12 218.79,-86.15"/>
<polygon fill="#528b8b" stroke="#528b8b" stroke-width="2" points="218.13,-89.59 228.67,-88.51 219.75,-82.79 218.13,-89.59"/>
</g>
<!-- heap -->
<g id="node6" class="node">
<title>heap</title>
<polygon fill="#cdc8b1" stroke="#8b8878" points="296.5,-36 246.5,-36 242.5,-32 242.5,0 292.5,0 296.5,-4 296.5,-36"/>
<polyline fill="none" stroke="#8b8878" points="292.5,-32 242.5,-32 "/>
<polyline fill="none" stroke="#8b8878" points="292.5,-32 292.5,0 "/>
<polyline fill="none" stroke="#8b8878" points="292.5,-32 296.5,-36 "/>
<text text-anchor="middle" x="269.5" y="-14.3" font-family="Helvetica,sans-Serif" font-size="14.00">heap</text>
</g>
<!-- src/conveyor.ts&#45;&gt;heap -->
<g id="edge4" class="edge">
<title>src/conveyor.ts&#45;&gt;heap</title>
<path fill="none" stroke="#8b8878" stroke-width="1.5" stroke-dasharray="5,2" d="M191.77,-51.96C205.08,-46.07 219.75,-39.57 232.67,-33.86"/>
<polygon fill="#8b8878" stroke="#8b8878" stroke-width="1.5" points="234.43,-36.91 242.16,-29.66 231.59,-30.51 234.43,-36.91"/>
</g>
<!-- src/lock.ts -->
<g id="node4" class="node">
<title>src/lock.ts</title>
<path fill="#79cdcd" stroke="#79cdcd" d="M59,-142C59,-142 28,-142 28,-142 22,-142 16,-136 16,-130 16,-130 16,-118 16,-118 16,-112 22,-106 28,-106 28,-106 59,-106 59,-106 65,-106 71,-112 71,-118 71,-118 71,-130 71,-130 71,-136 65,-142 59,-142"/>
<text text-anchor="middle" x="43.5" y="-120.3" font-family="Helvetica,sans-Serif" font-size="14.00">lock.ts</text>
</g>
<!-- src/lock.ts&#45;&gt;src/conveyor.ts -->
<g id="edge3" class="edge">
<title>src/lock.ts&#45;&gt;src/conveyor.ts</title>
<path fill="none" stroke="#528b8b" stroke-width="2" d="M71.14,-110.23C81.45,-104.91 93.52,-98.67 105.04,-92.72"/>
<polygon fill="#528b8b" stroke="#528b8b" stroke-width="2" points="106.84,-95.73 114.12,-88.03 103.63,-89.51 106.84,-95.73"/>
</g>
<!-- src/util.ts -->
<g id="node5" class="node">
<title>src/util.ts</title>
<path fill="#79cdcd" stroke="#79cdcd" d="M58.5,-88C58.5,-88 28.5,-88 28.5,-88 22.5,-88 16.5,-82 16.5,-76 16.5,-76 16.5,-64 16.5,-64 16.5,-58 22.5,-52 28.5,-52 28.5,-52 58.5,-52 58.5,-52 64.5,-52 70.5,-58 70.5,-64 70.5,-64 70.5,-76 70.5,-76 70.5,-82 64.5,-88 58.5,-88"/>
<text text-anchor="middle" x="43.5" y="-66.3" font-family="Helvetica,sans-Serif" font-size="14.00">util.ts</text>
</g>
</g>
</svg>
